<svg width="289" height="74" viewBox="0 0 289 74" fill="none" xmlns="http://www.w3.org/2000/svg">
<g clip-path="url(#clip0_22358_25817)">
<path d="M50.5557 8.6825C48.7854 8.6825 47.2557 12.4638 47.2557 18.2904C45.0041 17.7576 42.5978 17.4654 40.0025 17.4654C37.4072 17.4654 35.0009 17.7576 32.7493 18.2904C32.7493 12.4638 31.2024 8.6825 29.4493 8.6825C22.5914 8.6825 12.6741 37.9188 12.6741 43.436C12.6741 48.9533 23.6914 65.0237 40.0025 65.0237C56.3136 65.0237 67.3309 48.9533 67.3309 43.436C67.3309 37.9188 57.4308 8.6825 50.5557 8.6825ZM53.4948 36.8359L39.4353 50.8955C38.3869 51.9439 36.6681 51.9439 35.6196 50.8955L26.5274 41.8032C25.8742 41.15 25.8742 40.0672 26.5274 39.4141L28.6414 37.3C29.2946 36.6469 30.3774 36.6469 31.0305 37.3L37.5447 43.8141L49.026 32.3328C49.6792 31.6796 50.762 31.6796 51.4151 32.3328L53.5292 34.4468C54.1823 35.1 54.1823 36.1828 53.5292 36.8359H53.4948Z" fill="#FEF8F4"/>
</g>
<mask id="path-2-outside-1_22358_25817" maskUnits="userSpaceOnUse" x="80.3481" y="16.2828" width="197" height="39" fill="black">
<rect fill="white" x="80.3481" y="16.2828" width="197" height="39"/>
<path d="M201.183 23.8866C201.963 24.6048 202.931 24.9639 204.087 24.9639C205.242 24.9639 206.194 24.6048 206.944 23.8866C207.724 23.1373 208.114 22.2162 208.114 21.1233C208.114 20.0305 207.724 19.125 206.944 18.4069C206.194 17.6575 205.242 17.2828 204.087 17.2828C202.931 17.2828 201.963 17.6575 201.183 18.4069C200.433 19.125 200.059 20.0305 200.059 21.1233C200.059 22.2162 200.433 23.1373 201.183 23.8866Z"/>
<path d="M207.318 54.0019V28.055H200.761V54.0019H207.318Z"/>
<path d="M219.931 33.4411V45.993C219.931 46.8673 220.134 47.5074 220.54 47.9133C220.977 48.288 221.695 48.4753 222.694 48.4753H225.738V54.0019H221.617C216.09 54.0019 213.327 51.3167 213.327 45.9462V33.4411H210.236V28.055H213.327V21.6385H219.931V28.055H225.738V33.4411H219.931Z"/>
<path fill-rule="evenodd" clip-rule="evenodd" d="M262.678 54.4234C260.18 54.4234 257.932 53.877 255.933 52.7842C253.935 51.6601 252.358 50.0833 251.203 48.0538C250.079 46.0242 249.517 43.6825 249.517 41.0284C249.517 38.3744 250.094 36.0327 251.25 34.0031C252.436 31.9736 254.044 30.4124 256.074 29.3196C258.103 28.1955 260.367 27.6335 262.865 27.6335C265.363 27.6335 267.626 28.1955 269.656 29.3196C271.686 30.4124 273.278 31.9736 274.433 34.0031C275.62 36.0327 276.213 38.3744 276.213 41.0284C276.213 43.6825 275.604 46.0242 274.386 48.0538C273.2 50.0833 271.576 51.6601 269.515 52.7842C267.486 53.877 265.207 54.4234 262.678 54.4234ZM262.678 48.7095C263.864 48.7095 264.972 48.4285 266.003 47.8664C267.064 47.2732 267.907 46.3989 268.532 45.2436C269.156 44.0884 269.469 42.6833 269.469 41.0284C269.469 38.5618 268.813 36.6727 267.502 35.3613C266.221 34.0187 264.645 33.3474 262.771 33.3474C260.898 33.3474 259.321 34.0187 258.041 35.3613C256.792 36.6727 256.167 38.5618 256.167 41.0284C256.167 43.4951 256.776 45.3998 257.994 46.7424C259.243 48.0538 260.804 48.7095 262.678 48.7095Z"/>
<path d="M185.407 27.6804C188.592 27.6804 191.153 28.6639 193.088 30.631C195.056 32.5669 196.039 35.2833 196.039 38.7804V54.0019H189.482V39.6702C189.482 37.6407 188.967 36.0951 187.937 35.0335C186.906 33.9407 185.501 33.3943 183.721 33.3943C181.942 33.3943 180.521 33.9407 179.459 35.0335C178.429 36.0951 177.914 37.6407 177.914 39.6702V54.0019H171.357V39.6702C171.357 37.6407 170.842 36.0951 169.811 35.0335C168.781 33.9407 167.376 33.3943 165.596 33.3943C163.785 33.3943 162.349 33.9407 161.287 35.0335C160.257 36.0951 159.742 37.6407 159.742 39.6702V54.0019H153.185V27.6804H159.742V31.193C160.585 30.1002 161.662 29.2415 162.973 28.6171C164.316 27.9926 165.783 27.6804 167.376 27.6804C169.405 27.6804 171.216 28.1175 172.809 28.9918C174.401 29.8348 175.634 31.0525 176.509 32.6449C177.352 31.1462 178.569 29.9441 180.162 29.0386C181.785 28.1331 183.534 27.6804 185.407 27.6804Z"/>
<path d="M145.584 28.8512C144.242 29.6318 143.149 30.7091 142.306 32.0829V28.055H135.749V54.0019H142.306V41.0753C142.306 38.6711 142.821 36.985 143.852 36.0171C144.913 35.0491 146.474 34.5652 148.535 34.5652H150.268V27.6804C148.52 27.6804 146.958 28.0707 145.584 28.8512Z"/>
<path fill-rule="evenodd" clip-rule="evenodd" d="M132.463 40.4664C132.463 41.4031 132.401 42.2462 132.276 42.9955H113.307C113.464 44.869 114.119 46.3365 115.274 47.3981C116.43 48.4597 117.85 48.9905 119.537 48.9905C121.972 48.9905 123.705 47.9445 124.735 45.8525H131.807C131.058 48.3504 129.622 50.4112 127.499 52.0348C125.375 53.6272 122.768 54.4234 119.677 54.4234C117.179 54.4234 114.931 53.877 112.933 52.7842C110.966 51.6601 109.42 50.0833 108.296 48.0538C107.203 46.0242 106.657 43.6825 106.657 41.0284C106.657 38.3432 107.203 35.9858 108.296 33.9563C109.389 31.9267 110.919 30.3656 112.886 29.2727C114.853 28.1799 117.117 27.6335 119.677 27.6335C122.144 27.6335 124.345 28.1643 126.281 29.2259C128.248 30.2875 129.762 31.8018 130.824 33.7689C131.917 35.7048 132.463 37.9373 132.463 40.4664ZM125.672 38.593C125.641 36.9069 125.032 35.5643 123.845 34.5651C122.659 33.5348 121.207 33.0196 119.49 33.0196C117.866 33.0196 116.492 33.5191 115.368 34.5183C114.275 35.4862 113.604 36.8445 113.354 38.593H125.672Z"/>
<path fill-rule="evenodd" clip-rule="evenodd" d="M103.923 36.3449C104.766 34.815 105.187 33.1757 105.187 31.4272C105.187 29.4913 104.735 27.7584 103.829 26.2285C102.955 24.6985 101.628 23.4964 99.8482 22.6221C98.0684 21.7479 95.914 21.3107 93.3849 21.3107H81.3481V54.0019H87.9051V41.45H93.3849C96.0701 41.45 98.287 40.9816 100.036 40.0449C101.815 39.1082 103.111 37.8749 103.923 36.3449ZM97.1317 34.9399C96.2575 35.7517 94.9148 36.1576 93.1039 36.1576H87.9051V26.65H93.1039C96.6634 26.65 98.4431 28.2424 98.4431 31.4272C98.4431 32.9259 98.006 34.0968 97.1317 34.9399Z"/>
<path d="M242.946 24.9639C241.791 24.9639 240.823 24.6048 240.042 23.8866C239.293 23.1373 238.918 22.2162 238.918 21.1233C238.918 20.0305 239.293 19.125 240.042 18.4069C240.823 17.6575 241.791 17.2828 242.946 17.2828C244.101 17.2828 245.054 17.6575 245.803 18.4069C246.584 19.125 246.974 20.0305 246.974 21.1233C246.974 22.2162 246.584 23.1373 245.803 23.8866C245.054 24.6048 244.101 24.9639 242.946 24.9639Z"/>
<path d="M246.178 54.0019V28.055H239.621V54.0019H246.178Z"/>
<path d="M232.679 54.4234C231.524 54.4234 230.556 54.0643 229.776 53.3462C229.026 52.5968 228.651 51.6757 228.651 50.5829C228.651 49.4901 229.026 48.5846 229.776 47.8664C230.556 47.1171 231.524 46.7424 232.679 46.7424C233.835 46.7424 234.787 47.1171 235.536 47.8664C236.317 48.5846 236.707 49.4901 236.707 50.5829C236.707 51.6757 236.317 52.5968 235.536 53.3462C234.787 54.0643 233.835 54.4234 232.679 54.4234Z"/>
</mask>
<path d="M201.183 23.8866C201.963 24.6048 202.931 24.9639 204.087 24.9639C205.242 24.9639 206.194 24.6048 206.944 23.8866C207.724 23.1373 208.114 22.2162 208.114 21.1233C208.114 20.0305 207.724 19.125 206.944 18.4069C206.194 17.6575 205.242 17.2828 204.087 17.2828C202.931 17.2828 201.963 17.6575 201.183 18.4069C200.433 19.125 200.059 20.0305 200.059 21.1233C200.059 22.2162 200.433 23.1373 201.183 23.8866Z" fill="#FEF8F4"/>
<path d="M207.318 54.0019V28.055H200.761V54.0019H207.318Z" fill="#FEF8F4"/>
<path d="M219.931 33.4411V45.993C219.931 46.8673 220.134 47.5074 220.54 47.9133C220.977 48.288 221.695 48.4753 222.694 48.4753H225.738V54.0019H221.617C216.09 54.0019 213.327 51.3167 213.327 45.9462V33.4411H210.236V28.055H213.327V21.6385H219.931V28.055H225.738V33.4411H219.931Z" fill="#FEF8F4"/>
<path fill-rule="evenodd" clip-rule="evenodd" d="M262.678 54.4234C260.18 54.4234 257.932 53.877 255.933 52.7842C253.935 51.6601 252.358 50.0833 251.203 48.0538C250.079 46.0242 249.517 43.6825 249.517 41.0284C249.517 38.3744 250.094 36.0327 251.25 34.0031C252.436 31.9736 254.044 30.4124 256.074 29.3196C258.103 28.1955 260.367 27.6335 262.865 27.6335C265.363 27.6335 267.626 28.1955 269.656 29.3196C271.686 30.4124 273.278 31.9736 274.433 34.0031C275.62 36.0327 276.213 38.3744 276.213 41.0284C276.213 43.6825 275.604 46.0242 274.386 48.0538C273.2 50.0833 271.576 51.6601 269.515 52.7842C267.486 53.877 265.207 54.4234 262.678 54.4234ZM262.678 48.7095C263.864 48.7095 264.972 48.4285 266.003 47.8664C267.064 47.2732 267.907 46.3989 268.532 45.2436C269.156 44.0884 269.469 42.6833 269.469 41.0284C269.469 38.5618 268.813 36.6727 267.502 35.3613C266.221 34.0187 264.645 33.3474 262.771 33.3474C260.898 33.3474 259.321 34.0187 258.041 35.3613C256.792 36.6727 256.167 38.5618 256.167 41.0284C256.167 43.4951 256.776 45.3998 257.994 46.7424C259.243 48.0538 260.804 48.7095 262.678 48.7095Z" fill="#FEF8F4"/>
<path d="M185.407 27.6804C188.592 27.6804 191.153 28.6639 193.088 30.631C195.056 32.5669 196.039 35.2833 196.039 38.7804V54.0019H189.482V39.6702C189.482 37.6407 188.967 36.0951 187.937 35.0335C186.906 33.9407 185.501 33.3943 183.721 33.3943C181.942 33.3943 180.521 33.9407 179.459 35.0335C178.429 36.0951 177.914 37.6407 177.914 39.6702V54.0019H171.357V39.6702C171.357 37.6407 170.842 36.0951 169.811 35.0335C168.781 33.9407 167.376 33.3943 165.596 33.3943C163.785 33.3943 162.349 33.9407 161.287 35.0335C160.257 36.0951 159.742 37.6407 159.742 39.6702V54.0019H153.185V27.6804H159.742V31.193C160.585 30.1002 161.662 29.2415 162.973 28.6171C164.316 27.9926 165.783 27.6804 167.376 27.6804C169.405 27.6804 171.216 28.1175 172.809 28.9918C174.401 29.8348 175.634 31.0525 176.509 32.6449C177.352 31.1462 178.569 29.9441 180.162 29.0386C181.785 28.1331 183.534 27.6804 185.407 27.6804Z" fill="#FEF8F4"/>
<path d="M145.584 28.8512C144.242 29.6318 143.149 30.7091 142.306 32.0829V28.055H135.749V54.0019H142.306V41.0753C142.306 38.6711 142.821 36.985 143.852 36.0171C144.913 35.0491 146.474 34.5652 148.535 34.5652H150.268V27.6804C148.52 27.6804 146.958 28.0707 145.584 28.8512Z" fill="#FEF8F4"/>
<path fill-rule="evenodd" clip-rule="evenodd" d="M132.463 40.4664C132.463 41.4031 132.401 42.2462 132.276 42.9955H113.307C113.464 44.869 114.119 46.3365 115.274 47.3981C116.43 48.4597 117.85 48.9905 119.537 48.9905C121.972 48.9905 123.705 47.9445 124.735 45.8525H131.807C131.058 48.3504 129.622 50.4112 127.499 52.0348C125.375 53.6272 122.768 54.4234 119.677 54.4234C117.179 54.4234 114.931 53.877 112.933 52.7842C110.966 51.6601 109.42 50.0833 108.296 48.0538C107.203 46.0242 106.657 43.6825 106.657 41.0284C106.657 38.3432 107.203 35.9858 108.296 33.9563C109.389 31.9267 110.919 30.3656 112.886 29.2727C114.853 28.1799 117.117 27.6335 119.677 27.6335C122.144 27.6335 124.345 28.1643 126.281 29.2259C128.248 30.2875 129.762 31.8018 130.824 33.7689C131.917 35.7048 132.463 37.9373 132.463 40.4664ZM125.672 38.593C125.641 36.9069 125.032 35.5643 123.845 34.5651C122.659 33.5348 121.207 33.0196 119.49 33.0196C117.866 33.0196 116.492 33.5191 115.368 34.5183C114.275 35.4862 113.604 36.8445 113.354 38.593H125.672Z" fill="#FEF8F4"/>
<path fill-rule="evenodd" clip-rule="evenodd" d="M103.923 36.3449C104.766 34.815 105.187 33.1757 105.187 31.4272C105.187 29.4913 104.735 27.7584 103.829 26.2285C102.955 24.6985 101.628 23.4964 99.8482 22.6221C98.0684 21.7479 95.914 21.3107 93.3849 21.3107H81.3481V54.0019H87.9051V41.45H93.3849C96.0701 41.45 98.287 40.9816 100.036 40.0449C101.815 39.1082 103.111 37.8749 103.923 36.3449ZM97.1317 34.9399C96.2575 35.7517 94.9148 36.1576 93.1039 36.1576H87.9051V26.65H93.1039C96.6634 26.65 98.4431 28.2424 98.4431 31.4272C98.4431 32.9259 98.006 34.0968 97.1317 34.9399Z" fill="#FEF8F4"/>
<path d="M242.946 24.9639C241.791 24.9639 240.823 24.6048 240.042 23.8866C239.293 23.1373 238.918 22.2162 238.918 21.1233C238.918 20.0305 239.293 19.125 240.042 18.4069C240.823 17.6575 241.791 17.2828 242.946 17.2828C244.101 17.2828 245.054 17.6575 245.803 18.4069C246.584 19.125 246.974 20.0305 246.974 21.1233C246.974 22.2162 246.584 23.1373 245.803 23.8866C245.054 24.6048 244.101 24.9639 242.946 24.9639Z" fill="#FEF8F4"/>
<path d="M246.178 54.0019V28.055H239.621V54.0019H246.178Z" fill="#FEF8F4"/>
<path d="M232.679 54.4234C231.524 54.4234 230.556 54.0643 229.776 53.3462C229.026 52.5968 228.651 51.6757 228.651 50.5829C228.651 49.4901 229.026 48.5846 229.776 47.8664C230.556 47.1171 231.524 46.7424 232.679 46.7424C233.835 46.7424 234.787 47.1171 235.536 47.8664C236.317 48.5846 236.707 49.4901 236.707 50.5829C236.707 51.6757 236.317 52.5968 235.536 53.3462C234.787 54.0643 233.835 54.4234 232.679 54.4234Z" fill="#FEF8F4"/>
<path d="M201.183 23.8866C201.963 24.6048 202.931 24.9639 204.087 24.9639C205.242 24.9639 206.194 24.6048 206.944 23.8866C207.724 23.1373 208.114 22.2162 208.114 21.1233C208.114 20.0305 207.724 19.125 206.944 18.4069C206.194 17.6575 205.242 17.2828 204.087 17.2828C202.931 17.2828 201.963 17.6575 201.183 18.4069C200.433 19.125 200.059 20.0305 200.059 21.1233C200.059 22.2162 200.433 23.1373 201.183 23.8866Z" stroke="#FEF8F4" stroke-width="0.4" mask="url(#path-2-outside-1_22358_25817)"/>
<path d="M207.318 54.0019V28.055H200.761V54.0019H207.318Z" stroke="#FEF8F4" stroke-width="0.4" mask="url(#path-2-outside-1_22358_25817)"/>
<path d="M219.931 33.4411V45.993C219.931 46.8673 220.134 47.5074 220.54 47.9133C220.977 48.288 221.695 48.4753 222.694 48.4753H225.738V54.0019H221.617C216.09 54.0019 213.327 51.3167 213.327 45.9462V33.4411H210.236V28.055H213.327V21.6385H219.931V28.055H225.738V33.4411H219.931Z" stroke="#FEF8F4" stroke-width="0.4" mask="url(#path-2-outside-1_22358_25817)"/>
<path fill-rule="evenodd" clip-rule="evenodd" d="M262.678 54.4234C260.18 54.4234 257.932 53.877 255.933 52.7842C253.935 51.6601 252.358 50.0833 251.203 48.0538C250.079 46.0242 249.517 43.6825 249.517 41.0284C249.517 38.3744 250.094 36.0327 251.25 34.0031C252.436 31.9736 254.044 30.4124 256.074 29.3196C258.103 28.1955 260.367 27.6335 262.865 27.6335C265.363 27.6335 267.626 28.1955 269.656 29.3196C271.686 30.4124 273.278 31.9736 274.433 34.0031C275.62 36.0327 276.213 38.3744 276.213 41.0284C276.213 43.6825 275.604 46.0242 274.386 48.0538C273.2 50.0833 271.576 51.6601 269.515 52.7842C267.486 53.877 265.207 54.4234 262.678 54.4234ZM262.678 48.7095C263.864 48.7095 264.972 48.4285 266.003 47.8664C267.064 47.2732 267.907 46.3989 268.532 45.2436C269.156 44.0884 269.469 42.6833 269.469 41.0284C269.469 38.5618 268.813 36.6727 267.502 35.3613C266.221 34.0187 264.645 33.3474 262.771 33.3474C260.898 33.3474 259.321 34.0187 258.041 35.3613C256.792 36.6727 256.167 38.5618 256.167 41.0284C256.167 43.4951 256.776 45.3998 257.994 46.7424C259.243 48.0538 260.804 48.7095 262.678 48.7095Z" stroke="#FEF8F4" stroke-width="0.4" mask="url(#path-2-outside-1_22358_25817)"/>
<path d="M185.407 27.6804C188.592 27.6804 191.153 28.6639 193.088 30.631C195.056 32.5669 196.039 35.2833 196.039 38.7804V54.0019H189.482V39.6702C189.482 37.6407 188.967 36.0951 187.937 35.0335C186.906 33.9407 185.501 33.3943 183.721 33.3943C181.942 33.3943 180.521 33.9407 179.459 35.0335C178.429 36.0951 177.914 37.6407 177.914 39.6702V54.0019H171.357V39.6702C171.357 37.6407 170.842 36.0951 169.811 35.0335C168.781 33.9407 167.376 33.3943 165.596 33.3943C163.785 33.3943 162.349 33.9407 161.287 35.0335C160.257 36.0951 159.742 37.6407 159.742 39.6702V54.0019H153.185V27.6804H159.742V31.193C160.585 30.1002 161.662 29.2415 162.973 28.6171C164.316 27.9926 165.783 27.6804 167.376 27.6804C169.405 27.6804 171.216 28.1175 172.809 28.9918C174.401 29.8348 175.634 31.0525 176.509 32.6449C177.352 31.1462 178.569 29.9441 180.162 29.0386C181.785 28.1331 183.534 27.6804 185.407 27.6804Z" stroke="#FEF8F4" stroke-width="0.4" mask="url(#path-2-outside-1_22358_25817)"/>
<path d="M145.584 28.8512C144.242 29.6318 143.149 30.7091 142.306 32.0829V28.055H135.749V54.0019H142.306V41.0753C142.306 38.6711 142.821 36.985 143.852 36.0171C144.913 35.0491 146.474 34.5652 148.535 34.5652H150.268V27.6804C148.52 27.6804 146.958 28.0707 145.584 28.8512Z" stroke="#FEF8F4" stroke-width="0.4" mask="url(#path-2-outside-1_22358_25817)"/>
<path fill-rule="evenodd" clip-rule="evenodd" d="M132.463 40.4664C132.463 41.4031 132.401 42.2462 132.276 42.9955H113.307C113.464 44.869 114.119 46.3365 115.274 47.3981C116.43 48.4597 117.85 48.9905 119.537 48.9905C121.972 48.9905 123.705 47.9445 124.735 45.8525H131.807C131.058 48.3504 129.622 50.4112 127.499 52.0348C125.375 53.6272 122.768 54.4234 119.677 54.4234C117.179 54.4234 114.931 53.877 112.933 52.7842C110.966 51.6601 109.42 50.0833 108.296 48.0538C107.203 46.0242 106.657 43.6825 106.657 41.0284C106.657 38.3432 107.203 35.9858 108.296 33.9563C109.389 31.9267 110.919 30.3656 112.886 29.2727C114.853 28.1799 117.117 27.6335 119.677 27.6335C122.144 27.6335 124.345 28.1643 126.281 29.2259C128.248 30.2875 129.762 31.8018 130.824 33.7689C131.917 35.7048 132.463 37.9373 132.463 40.4664ZM125.672 38.593C125.641 36.9069 125.032 35.5643 123.845 34.5651C122.659 33.5348 121.207 33.0196 119.49 33.0196C117.866 33.0196 116.492 33.5191 115.368 34.5183C114.275 35.4862 113.604 36.8445 113.354 38.593H125.672Z" stroke="#FEF8F4" stroke-width="0.4" mask="url(#path-2-outside-1_22358_25817)"/>
<path fill-rule="evenodd" clip-rule="evenodd" d="M103.923 36.3449C104.766 34.815 105.187 33.1757 105.187 31.4272C105.187 29.4913 104.735 27.7584 103.829 26.2285C102.955 24.6985 101.628 23.4964 99.8482 22.6221C98.0684 21.7479 95.914 21.3107 93.3849 21.3107H81.3481V54.0019H87.9051V41.45H93.3849C96.0701 41.45 98.287 40.9816 100.036 40.0449C101.815 39.1082 103.111 37.8749 103.923 36.3449ZM97.1317 34.9399C96.2575 35.7517 94.9148 36.1576 93.1039 36.1576H87.9051V26.65H93.1039C96.6634 26.65 98.4431 28.2424 98.4431 31.4272C98.4431 32.9259 98.006 34.0968 97.1317 34.9399Z" stroke="#FEF8F4" stroke-width="0.4" mask="url(#path-2-outside-1_22358_25817)"/>
<path d="M242.946 24.9639C241.791 24.9639 240.823 24.6048 240.042 23.8866C239.293 23.1373 238.918 22.2162 238.918 21.1233C238.918 20.0305 239.293 19.125 240.042 18.4069C240.823 17.6575 241.791 17.2828 242.946 17.2828C244.101 17.2828 245.054 17.6575 245.803 18.4069C246.584 19.125 246.974 20.0305 246.974 21.1233C246.974 22.2162 246.584 23.1373 245.803 23.8866C245.054 24.6048 244.101 24.9639 242.946 24.9639Z" stroke="#FEF8F4" stroke-width="0.4" mask="url(#path-2-outside-1_22358_25817)"/>
<path d="M246.178 54.0019V28.055H239.621V54.0019H246.178Z" stroke="#FEF8F4" stroke-width="0.4" mask="url(#path-2-outside-1_22358_25817)"/>
<path d="M232.679 54.4234C231.524 54.4234 230.556 54.0643 229.776 53.3462C229.026 52.5968 228.651 51.6757 228.651 50.5829C228.651 49.4901 229.026 48.5846 229.776 47.8664C230.556 47.1171 231.524 46.7424 232.679 46.7424C233.835 46.7424 234.787 47.1171 235.536 47.8664C236.317 48.5846 236.707 49.4901 236.707 50.5829C236.707 51.6757 236.317 52.5968 235.536 53.3462C234.787 54.0643 233.835 54.4234 232.679 54.4234Z" stroke="#FEF8F4" stroke-width="0.4" mask="url(#path-2-outside-1_22358_25817)"/>
<defs>
<clipPath id="clip0_22358_25817">
<rect width="54.674" height="56.3412" fill="white" transform="translate(12.6741 8.6825)"/>
</clipPath>
</defs>
</svg>
